<svg width="300" height="300" viewBox="0 0 300 300" fill="none" xmlns="http://www.w3.org/2000/svg">
<g clip-path="url(#clip0_111_2)">
<rect x="95" width="15" height="300" rx="7.5" fill="#D9D9D9"/>
<rect x="189" width="15" height="300" rx="7.5" fill="#D9D9D9"/>
<rect y="229" width="15" height="300" rx="7.5" transform="rotate(-90 0 229)" fill="#D9D9D9"/>
<rect y="118" width="15" height="300" rx="7.5" transform="rotate(-90 0 118)" fill="#D9D9D9"/>
<circle cx="150" cy="166" r="28" fill="#FF3737"/>
<circle cx="253" cy="267" r="28" fill="#FF3737"/>
<circle cx="48" cy="166" r="28" fill="#FF3737"/>
<circle cx="253" cy="166" r="28" fill="#FF3737"/>
<rect x="26" y="242" width="50" height="50" rx="10" fill="#3995FF"/>
<rect x="125" y="242" width="50" height="50" rx="10" fill="#3995FF"/>
<rect x="23" y="24" width="50" height="50" rx="10" fill="#3995FF"/>
<rect x="233" y="24" width="50" height="50" rx="10" fill="#3995FF"/>
<g filter="url(#filter0_i_111_2)">
<rect x="8" y="152" width="277" height="28" rx="10" fill="#6D0000"/>
</g>
</g>
<defs>
<filter id="filter0_i_111_2" x="8" y="152" width="277" height="32" filterUnits="userSpaceOnUse" color-interpolation-filters="sRGB">
<feFlood flood-opacity="0" result="BackgroundImageFix"/>
<feBlend mode="normal" in="SourceGraphic" in2="BackgroundImageFix" result="shape"/>
<feColorMatrix in="SourceAlpha" type="matrix" values="0 0 0 0 0 0 0 0 0 0 0 0 0 0 0 0 0 0 127 0" result="hardAlpha"/>
<feOffset dy="4"/>
<feGaussianBlur stdDeviation="2"/>
<feComposite in2="hardAlpha" operator="arithmetic" k2="-1" k3="1"/>
<feColorMatrix type="matrix" values="0 0 0 0 0 0 0 0 0 0 0 0 0 0 0 0 0 0 0.25 0"/>
<feBlend mode="normal" in2="shape" result="effect1_innerShadow_111_2"/>
</filter>
<clipPath id="clip0_111_2">
<rect width="300" height="300" fill="white"/>
</clipPath>
</defs>
</svg>
